<svg height="512" viewBox="0 0 60 60" width="512" xmlns="http://www.w3.org/2000/svg"><g id="Page-1" fill="none" fill-rule="evenodd"><g id="001---Calendar" fill="rgb(0,0,0)" fill-rule="nonzero"><path id="Shape" d="m55 3h-6c0-1.65685425-1.3431458-3-3-3s-3 1.34314575-3 3h-26c0-1.65685422-1.3431458-2.99999994-3-2.99999994s-3 1.34314572-3 2.99999994h-6c-2.76005315.00330612-4.99669388 2.23994685-5 5v47c.00330612 2.7600532 2.23994685 4.9966939 5 5h50c2.7600532-.0033061 4.9966939-2.2399468 5-5v-47c-.0033061-2.76005315-2.2399468-4.99669388-5-5zm-12 2.869v1.131c0 1.65685425 1.3431458 3 3 3s3-1.34314575 3-3v-1.131c.6348011.65400659.9929785 1.52760119 1 2.439-.1681855 2.0843921-1.9088336 3.6902478-4 3.6902478s-3.8318145-1.6058557-4-3.6902478c.0070215-.91139881.3651989-1.78499341 1-2.439zm2-2.869c0-.55228475.4477153-1 1-1s1 .44771525 1 1v4c0 .55228475-.4477153 1-1 1s-1-.44771525-1-1zm-34 2.869v1.131c0 1.65685422 1.3431458 2.99999994 3 2.99999994s3-1.34314572 3-2.99999994v-1.131c.6348011.65400659.9929785 1.52760119 1 2.439-.0904077 2.121609-1.8779548 3.771515-4 3.692-2.1220452.079515-3.9095923-1.570391-4-3.692.0070215-.91139881.3651989-1.78499341 1-2.439zm2-2.869c0-.55228475.4477153-1 1-1s1 .44771525 1 1v4c0 .55228475-.4477153 1-1 1s-1-.44771525-1-1zm-8 2h4.134c-.72872851.94944373-1.12696914 2.11115448-1.134 3.308.09102178 3.2259942 2.7736878 5.77095 6 5.692 3.2263122.07895 5.9089782-2.4660058 6-5.692-.0070309-1.19684552-.4052715-2.35855627-1.134-3.308h22.268c-.7287285.94944373-1.1269691 2.11115448-1.134 3.308.1649621 3.1934124 2.8023297 5.6980581 6 5.6980581s5.8350379-2.5046457 6-5.6980581c-.0070309-1.19684552-.4052715-2.35855627-1.134-3.308h4.134c1.6568542 0 3 1.34314575 3 3v8h-56v-8c0-1.65685425 1.34314575-3 3-3zm50 53h-50c-1.65685425 0-3-1.3431458-3-3v-37h56v37c0 1.6568542-1.3431458 3-3 3z"/><path id="Shape" d="m12 21h-4c-1.1045695 0-2 .8954305-2 2v3c0 1.1045695.8954305 2 2 2h4c1.1045695 0 2-.8954305 2-2v-3c0-1.1045695-.8954305-2-2-2zm-4 5v-3h4v3z"/><path id="Shape" d="m22 21h-4c-1.1045695 0-2 .8954305-2 2v3c0 1.1045695.8954305 2 2 2h4c1.1045695 0 2-.8954305 2-2v-3c0-1.1045695-.8954305-2-2-2zm-4 5v-3h4v3z"/><path id="Shape" d="m32 21h-4c-1.1045695 0-2 .8954305-2 2v3c0 1.1045695.8954305 2 2 2h4c1.1045695 0 2-.8954305 2-2v-3c0-1.1045695-.8954305-2-2-2zm-4 5v-3h4v3z"/><path id="Shape" d="m42 21h-4c-1.1045695 0-2 .8954305-2 2v3c0 1.1045695.8954305 2 2 2h4c1.1045695 0 2-.8954305 2-2v-3c0-1.1045695-.8954305-2-2-2zm-4 5v-3h4v3z"/><path id="Shape" d="m52 21h-4c-1.1045695 0-2 .8954305-2 2v3c0 1.1045695.8954305 2 2 2h4c1.1045695 0 2-.8954305 2-2v-3c0-1.1045695-.8954305-2-2-2zm-4 5v-3h4v3z"/><path id="Shape" d="m12 30h-4c-1.1045695 0-2 .8954305-2 2v3c0 1.1045695.8954305 2 2 2h4c1.1045695 0 2-.8954305 2-2v-3c0-1.1045695-.8954305-2-2-2zm-4 5v-3h4v3z"/><path id="Shape" d="m22 30h-4c-1.1045695 0-2 .8954305-2 2v3c0 1.1045695.8954305 2 2 2h4c1.1045695 0 2-.8954305 2-2v-3c0-1.1045695-.8954305-2-2-2zm-4 5v-3h4v3z"/><path id="Shape" d="m32 30h-4c-1.1045695 0-2 .8954305-2 2v3c0 1.1045695.8954305 2 2 2h4c1.1045695 0 2-.8954305 2-2v-3c0-1.1045695-.8954305-2-2-2zm-4 5v-3h4v3z"/><path id="Shape" d="m42 30h-4c-1.1045695 0-2 .8954305-2 2v3c0 1.1045695.8954305 2 2 2h4c1.1045695 0 2-.8954305 2-2v-3c0-1.1045695-.8954305-2-2-2zm-4 5v-3h4v3z"/><path id="Shape" d="m52 30h-4c-1.1045695 0-2 .8954305-2 2v3c0 1.1045695.8954305 2 2 2h4c1.1045695 0 2-.8954305 2-2v-3c0-1.1045695-.8954305-2-2-2zm-4 5v-3h4v3z"/><path id="Shape" d="m12 39h-4c-1.1045695 0-2 .8954305-2 2v3c0 1.1045695.8954305 2 2 2h4c1.1045695 0 2-.8954305 2-2v-3c0-1.1045695-.8954305-2-2-2zm-4 5v-3h4v3z"/><path id="Shape" d="m22 39h-4c-1.1045695 0-2 .8954305-2 2v3c0 1.1045695.8954305 2 2 2h4c1.1045695 0 2-.8954305 2-2v-3c0-1.1045695-.8954305-2-2-2zm-4 5v-3h4v3z"/><path id="Shape" d="m32 39h-4c-1.1045695 0-2 .8954305-2 2v3c0 1.1045695.8954305 2 2 2h4c1.1045695 0 2-.8954305 2-2v-3c0-1.1045695-.8954305-2-2-2zm-4 5v-3h4v3z"/><path id="Shape" d="m42 39h-4c-1.1045695 0-2 .8954305-2 2v3c0 1.1045695.8954305 2 2 2h4c1.1045695 0 2-.8954305 2-2v-3c0-1.1045695-.8954305-2-2-2zm-4 5v-3h4v3z"/><path id="Shape" d="m52 39h-4c-1.1045695 0-2 .8954305-2 2v3c0 1.1045695.8954305 2 2 2h4c1.1045695 0 2-.8954305 2-2v-3c0-1.1045695-.8954305-2-2-2zm-4 5v-3h4v3z"/><path id="Shape" d="m12 48h-4c-1.1045695 0-2 .8954305-2 2v3c0 1.1045695.8954305 2 2 2h4c1.1045695 0 2-.8954305 2-2v-3c0-1.1045695-.8954305-2-2-2zm-4 5v-3h4v3z"/><path id="Shape" d="m22 48h-4c-1.1045695 0-2 .8954305-2 2v3c0 1.1045695.8954305 2 2 2h4c1.1045695 0 2-.8954305 2-2v-3c0-1.1045695-.8954305-2-2-2zm-4 5v-3h4v3z"/><path id="Shape" d="m32 48h-4c-1.1045695 0-2 .8954305-2 2v3c0 1.1045695.8954305 2 2 2h4c1.1045695 0 2-.8954305 2-2v-3c0-1.1045695-.8954305-2-2-2zm-4 5v-3h4v3z"/><path id="Shape" d="m42 48h-4c-1.1045695 0-2 .8954305-2 2v3c0 1.1045695.8954305 2 2 2h4c1.1045695 0 2-.8954305 2-2v-3c0-1.1045695-.8954305-2-2-2zm-4 5v-3h4v3z"/><path id="Shape" d="m52 48h-4c-1.1045695 0-2 .8954305-2 2v3c0 1.1045695.8954305 2 2 2h4c1.1045695 0 2-.8954305 2-2v-3c0-1.1045695-.8954305-2-2-2zm-4 5v-3h4v3z"/></g></g></svg>