<?xml version="1.0" encoding="iso-8859-1"?>
<!-- Generator: Adobe Illustrator 19.0.0, SVG Export Plug-In . SVG Version: 6.00 Build 0)  -->
<svg version="1.1" id="Capa_1" xmlns="http://www.w3.org/2000/svg" xmlns:xlink="http://www.w3.org/1999/xlink" x="0px" y="0px"
	 viewBox="0 0 508 508" style="enable-background:new 0 0 508 508;" xml:space="preserve">
<g>
	<g>
		<path d="M254,0c-40.7,0-73.9,33.1-73.9,73.7c0,40.6,33.2,73.8,73.9,73.8s73.9-33.1,73.9-73.7C327.9,33.2,294.7,0,254,0z
			 M254,131.2c-31.7,0-57.4-25.7-57.4-57.4s25.7-57.4,57.4-57.4s57.4,25.7,57.4,57.4C311.4,105.4,285.6,131.2,254,131.2z"/>
	</g>
</g>
<g>
	<g>
		<path d="M286.8,163.9h-65.7c-40.7,0-73.9,33.1-73.9,73.7v122.9H180V508h147.7V360.5h32.8V237.6h0.2
			C360.7,196.9,327.6,163.9,286.8,163.9z M344.4,344.1h-0.1h-32.8v147.5h-49.2V376.9h-16.4v114.7h-49.2V344.1h-32.8V237.6
			c0-31.6,25.8-57.4,57.4-57.4H287c31.7,0,57.4,25.7,57.4,57.4V344.1z"/>
	</g>
</g>
<g>
	<g>
		<path d="M89.9,90.1c-31.9,0-57.9,26-57.9,57.8c0,31.9,26,57.8,57.9,57.8c31.9,0,57.9-25.9,57.9-57.8
			C147.8,116,121.8,90.1,89.9,90.1z M89.9,189.3c-22.9,0-41.5-18.6-41.5-41.4s18.6-41.4,41.5-41.4c22.9,0,41.5,18.6,41.5,41.4
			C131.4,170.7,112.8,189.3,89.9,189.3z"/>
	</g>
</g>
<g>
	<g>
		<path d="M130.9,376.9v114.7H98.3v-81.9H81.9v81.9H41.1V376.9H17l-0.6-94.6c0-25,20.8-45.3,46.4-45.3h67.5v-16.4H62.8
			C28.2,220.7,0,248.4,0,282.4l0.7,110.9h24V508h122.6V393.3h16.4v-16.4H130.9z"/>
	</g>
</g>
<g>
	<g>
		<path d="M418.1,90.1c-31.9,0-57.9,25.9-57.9,57.8c0,31.9,26,57.8,57.9,57.8c31.9,0,57.9-25.9,57.9-57.8
			C476,116,450,90.1,418.1,90.1z M418.1,189.3c-22.9,0-41.5-18.6-41.5-41.4c0.1-22.8,18.7-41.4,41.5-41.4
			c22.9,0,41.5,18.6,41.5,41.4C459.6,170.7,441,189.3,418.1,189.3z"/>
	</g>
</g>
<g>
	<g>
		<path d="M445.2,220.7h-68.1v16.4h68.1c25.6,0,46.4,20.3,46.4,45.2l-0.6,94.6h-24.1v114.7h-40.8v-81.9h-16.4v81.9h-32.6V376.9
			h-32.8v16.4h16.4V508h122.6V393.3h24l0.7-110.9C508,248.4,479.8,220.7,445.2,220.7z"/>
	</g>
</g>
<g>
</g>
<g>
</g>
<g>
</g>
<g>
</g>
<g>
</g>
<g>
</g>
<g>
</g>
<g>
</g>
<g>
</g>
<g>
</g>
<g>
</g>
<g>
</g>
<g>
</g>
<g>
</g>
<g>
</g>
</svg>
