<svg height="384pt" viewBox="-32 0 384 384" width="384pt" xmlns="http://www.w3.org/2000/svg"><path d="m38.28125 187.703125c-24.328125 21.226563-38.28125 51.953125-38.28125 84.296875 0 61.761719 50.238281 112 112 112s112-50.238281 112-112c0-8.832031-7.167969-16-16-16s-16 7.167969-16 16c0 44.113281-35.886719 80-80 80s-80-35.886719-80-80c0-23.105469 9.960938-45.03125 27.320312-60.175781 6.65625-5.816407 7.34375-15.921875 1.535157-22.578125-5.808594-6.660156-15.902344-7.359375-22.574219-1.542969zm0 0"/><path d="m160 48c0-26.472656-21.527344-48-48-48s-48 21.527344-48 48c0 20.855469 13.382812 38.59375 32 45.199219v122.800781c0 8.832031 7.167969 16 16 16h121.375l59.3125 59.3125c3.128906 3.128906 7.214844 4.6875 11.3125 4.6875s8.183594-1.558594 11.3125-4.6875c6.246094-6.25 6.246094-16.375 0-22.625l-64-64c-3-3-7.074219-4.6875-11.3125-4.6875h-112v-64h64c8.832031 0 16-7.167969 16-16s-7.167969-16-16-16h-64v-10.800781c18.617188-6.605469 32-24.34375 32-45.199219zm-48-16c8.824219 0 16 7.175781 16 16s-7.175781 16-16 16-16-7.175781-16-16 7.175781-16 16-16zm0 0"/></svg>