<?xml version="1.0" encoding="iso-8859-1"?>
<!-- Generator: Adobe Illustrator 19.0.0, SVG Export Plug-In . SVG Version: 6.00 Build 0)  -->
<svg version="1.1" id="Layer_1" xmlns="http://www.w3.org/2000/svg" xmlns:xlink="http://www.w3.org/1999/xlink" x="0px" y="0px"
	 viewBox="0 0 512 512" style="enable-background:new 0 0 512 512;" xml:space="preserve">
<g>
	<g>
		<path d="M297.54,105.074H142.622c-10.185,0-18.443,8.257-18.443,18.443c0,10.185,8.257,18.443,18.443,18.443H297.54
			c10.185,0,18.443-8.257,18.443-18.443C315.983,113.331,307.725,105.074,297.54,105.074z"/>
	</g>
</g>
<g>
	<g>
		<path d="M328.278,172.697H111.885c-10.185,0-18.443,8.257-18.443,18.443c0,10.185,8.257,18.443,18.443,18.443h216.393
			c10.185,0,18.443-8.257,18.443-18.443C346.72,180.954,338.463,172.697,328.278,172.697z"/>
	</g>
</g>
<g>
	<g>
		<path d="M328.278,240.32H111.885c-10.185,0-18.443,8.257-18.443,18.443c0,10.185,8.257,18.443,18.443,18.443h216.393
			c10.185,0,18.443-8.257,18.443-18.443C346.72,248.577,338.463,240.32,328.278,240.32z"/>
	</g>
</g>
<g>
	<g>
		<path d="M506.6,285.421l-47.7-47.7c-4.403-4.403-10.935-6.475-17.508-4.829V22.697c0-10.185-8.257-18.443-18.443-18.443H18.443
			C8.257,4.255,0,12.512,0,22.697v404.507c0,10.185,8.257,18.443,18.443,18.443h226.505l-8.004,40.031
			c-2.579,12.9,8.82,24.278,21.701,21.7l59.624-11.925c3.57-0.714,6.85-2.469,9.424-5.043l44.763-44.763h50.495
			c10.185,0,18.443-8.257,18.443-18.443v-50.493c40.42-40.419,61.671-61.671,65.208-65.208
			C513.798,304.308,513.802,292.623,506.6,285.421z M36.885,408.762V41.14h367.622v224.892
			c-4.752,4.752-138.11,138.097-142.744,142.729H36.885z M305.559,460.38l-27.023,5.405l5.406-27.039l114.206-114.193l21.62,21.618
			L305.559,460.38z M445.85,320.091l-21.618-21.618l11.758-11.757c0.007-0.007,0.013-0.016,0.021-0.023l9.848-9.848l21.618,21.617
			L445.85,320.091z"/>
	</g>
</g>
<g>
</g>
<g>
</g>
<g>
</g>
<g>
</g>
<g>
</g>
<g>
</g>
<g>
</g>
<g>
</g>
<g>
</g>
<g>
</g>
<g>
</g>
<g>
</g>
<g>
</g>
<g>
</g>
<g>
</g>
</svg>
